<svg xmlns="http://www.w3.org/2000/svg" xmlns:xlink="http://www.w3.org/1999/xlink" x="0" y="0" width="312" height="309" style="
        width:312px;
        height:309px;
        fill: none;
">
        
        
        <svg xmlns="http://www.w3.org/2000/svg" class="role-diagram-draw-area"><g class="shapes-region" style="stroke: black; fill: none;"><g class="composite-shape"><path class="real" d=" M28.71,83.59 C28.59,56.2 50.7,33.91 78.09,33.79 L226.87,33.17 C254.25,33.05 276.55,55.16 276.66,82.55 L277.29,232.41 C277.41,259.8 255.3,282.09 227.91,282.21 L79.13,282.83 C51.75,282.95 29.45,260.84 29.34,233.45 Z" style="stroke-width: 3; stroke: rgb(255, 255, 255); stroke-opacity: 1; fill: rgb(255, 255, 255); fill-opacity: 1;"/></g><g class="composite-shape"><path class="real" d=" M74.67,8.21 L243.17,8.21 C274.19,8.21 299.34,33.36 299.34,64.38 L299.34,239.01 C299.34,270.04 274.19,295.18 243.17,295.18 L74.67,295.18 C43.65,295.18 18.5,270.04 18.5,239.01 L18.5,64.38 C18.5,33.36 43.65,8.21 74.67,8.21 Z  M39.15,159.96 L134.08,270.48 C139.14,276.37 148.03,277.05 153.93,271.98 L261.63,179.48 C267.53,174.41 268.2,165.52 263.14,159.63 L168.21,49.11 C163.14,43.21 154.26,42.54 148.36,47.6 L40.66,140.11 C34.76,145.17 34.09,154.06 39.15,159.96 Z" style="stroke-width: 3; stroke: rgb(255, 255, 255); stroke-opacity: 1; fill: rgb(0, 0, 0); fill-opacity: 1;"/></g><g class="composite-shape"><path class="real" d=" M143.51,73.08 C143.56,67.8 147.87,63.55 153.15,63.6 C158.43,63.64 162.68,67.96 162.63,73.24 C162.59,78.52 158.27,82.76 152.99,82.72 C147.71,82.67 143.47,78.36 143.51,73.08 Z" style="stroke-width: 1; stroke: rgb(99, 88, 173); stroke-opacity: 1; fill: rgb(0, 0, 0); fill-opacity: 1;"/></g><g class="composite-shape"><path class="real" d=" M179.97,50.57 L192.88,23.01 L207.52,37.62 Z" style="stroke-width: 1; stroke: none; stroke-opacity: 1; fill: rgb(255, 255, 255); fill-opacity: 1;"/></g><g/></g><g/><g/><g/></svg>
        <svg xmlns="http://www.w3.org/2000/svg" xmlns:xlink="http://www.w3.org/1999/xlink" width="310" height="307" style="width:310px;height:307px;font-family:Asana-Math, Asana;background:#FFF;"><g transform="matrix(0.7600658111778444,-0.649846106919604,0.649846106919604,0.7600658111778444,-73.93344886502999,157.2560741471003)"><g><g><text x="91.6796875" y="108.21484375" style="white-space:pre;stroke:none;fill:rgb(0,0,0);fill-opacity:1;font-size:32.3205px;font-family:&quot;Courier New&quot;, Courier, monospace;font-weight:700;font-style:normal;dominant-baseline:text-before-edge;text-decoration:none;">0x</text></g></g><g><g><text x="91.6796875" y="153.45703125" style="white-space:pre;stroke:none;fill:rgb(0,0,0);fill-opacity:1;font-size:32.3205px;font-family:&quot;Courier New&quot;, Courier, monospace;font-weight:700;font-style:normal;dominant-baseline:text-before-edge;text-decoration:none;">61726368 </text><text x="91.6796875" y="198.69921875" style="white-space:pre;stroke:none;fill:rgb(0,0,0);fill-opacity:1;font-size:32.3205px;font-family:&quot;Courier New&quot;, Courier, monospace;font-weight:700;font-style:normal;dominant-baseline:text-before-edge;text-decoration:none;">206C6162</text></g></g></g></svg>
</svg>
